<svg width="20" height="20" viewBox="0 0 68 90" fill="none" xmlns="http://www.w3.org/2000/svg">
    <path fill-rule="evenodd" clip-rule="evenodd"
        d="M19.0002 16.4107V9.58917C19.0002 9.03503 19.2205 8.50366 19.6121 8.11182C20.0039 7.72003 20.5354 7.49988 21.0896 7.49988H25.1526C24.7397 6.91589 24.5125 6.22101 24.5002 5.50586C24.5002 2.46509 28.7534 0 34.0002 0C39.2471 0 43.5002 2.46509 43.5002 5.50586C43.488 6.22101 43.2607 6.91589 42.8479 7.49988H46.9109C47.4651 7.49988 47.9966 7.72003 48.3884 8.11182C48.78 8.50366 49.0002 9.03503 49.0002 9.58917V16.4107C49.0002 16.6851 48.9463 16.9567 48.8413 17.2102C48.7361 17.4637 48.5823 17.694 48.3882 17.8879C48.2893 17.987 48.1807 18.0756 48.0645 18.1525C47.9531 18.2263 47.8345 18.2894 47.7104 18.3408C47.5522 18.4063 47.3872 18.452 47.2185 18.4771C47.1169 18.4922 47.0142 18.4999 46.9109 18.4999H21.0896C20.5354 18.4999 20.0039 18.2798 19.6123 17.8879C19.2205 17.4962 19.0002 16.9648 19.0002 16.4107ZM55 10.4999H64.75C65.0784 10.4999 65.4033 10.5645 65.7068 10.6901C66.01 10.8157 66.2856 10.9999 66.5178 11.2321C66.75 11.4642 66.9341 11.7398 67.0598 12.0432C67.1853 12.3464 67.25 12.6716 67.25 12.9999V87.4999C67.25 87.8282 67.1853 88.1533 67.0598 88.4566C66.9341 88.7599 66.75 89.0355 66.5178 89.2677C66.2856 89.4999 66.01 89.684 65.7068 89.8096C65.4033 89.9352 65.0784 89.9999 64.75 89.9999H3.25C2.92163 89.9999 2.59668 89.9352 2.29321 89.8096C1.98999 89.684 1.71436 89.4999 1.48218 89.2677C1.25 89.0355 1.06592 88.7599 0.940186 88.4566C0.814697 88.1533 0.75 87.8282 0.75 87.4999V12.9999C0.75 12.6716 0.814697 12.3464 0.940186 12.0432C1.06592 11.7398 1.25 11.4642 1.48218 11.2321C1.71436 10.9999 1.98999 10.8157 2.29321 10.6901C2.59668 10.5645 2.92163 10.4999 3.25 10.4999H13V15.4999H5.75V84.9999H62.25V15.4999H55V10.4999Z"
        fill="white" />
</svg>