<svg width="150" height="150" viewBox="0 0 592 592" fill="none" xmlns="http://www.w3.org/2000/svg">
    <path
        d="M296.329 0C254.711 0 215.074 8.66386 179.126 24.2733C178.449 24.4313 177.784 24.642 177.126 24.9251C69.5271 72.1023 0 178.537 0 296.079C0 459.251 132.634 592 295.665 592C413.104 592 519.447 522.413 566.59 414.713C568.537 410.256 567.557 405.062 564.123 401.632C560.69 398.189 555.493 397.214 551.047 399.163C516.573 414.279 479.875 421.949 441.967 421.949C380.834 421.949 324.337 401.652 278.858 367.444C327.146 328.391 387.234 307.034 449.716 307.034C493.208 307.034 534.767 317.001 573.234 336.66C576.694 338.431 580.805 338.371 584.225 336.521C587.646 334.671 589.921 331.248 590.336 327.377C591.441 316.922 592 306.336 592 295.921C592 132.749 459.366 0 296.329 0ZM441.967 445.564C472.738 445.564 502.779 440.916 531.636 431.712C503.003 481.595 459.668 520.484 408.612 543.809C397.633 502.162 377.847 463.866 350.76 431.139C379.498 440.488 410.151 445.564 441.967 445.564ZM386.523 552.73C357.838 562.901 327.185 568.378 295.671 568.378C254.389 568.378 215.231 559.109 180.139 542.571C87.7213 499.008 23.6011 404.897 23.6011 296.079C23.6011 197.886 76.3351 108.101 160.156 59.9031C150.96 88.7848 146.31 118.852 146.31 149.643C146.31 160.301 146.915 170.822 148.013 181.184C155.045 247.269 183.888 306.915 227.196 352.763C237.616 363.797 248.87 374.041 260.862 383.369C265.65 387.089 270.551 390.677 275.563 394.114C275.971 394.502 276.385 394.884 276.859 395.22C331.75 433.042 370.395 488.699 386.523 552.73ZM260.322 352.177C204.858 302.287 169.904 229.981 169.904 149.643C169.904 113.354 176.929 78.1854 190.762 44.9915C202.464 40.0407 214.567 35.8668 227.039 32.5751C226.512 34.0234 226.157 35.0044 226.157 35.0044C216.738 64.2153 211.982 94.6244 211.982 125.712C211.982 201.823 240.273 273.122 291.974 328.134C291.974 328.134 292.211 328.41 292.435 328.746C281.266 335.784 270.557 343.625 260.322 352.177ZM568.129 308.1C530.814 291.714 491.064 283.419 449.716 283.419C401.869 283.419 355.318 294.947 313.635 316.593C263.243 265.374 235.577 197.9 235.577 125.718C235.577 91.6158 241.799 58.4087 254.08 26.9067C267.854 24.7473 281.956 23.615 296.329 23.615C446.355 23.615 568.399 145.778 568.399 295.921C568.399 299.963 568.307 304.032 568.129 308.1ZM95.95 296.658C79.2556 296.658 65.666 283.063 65.666 266.348C65.666 249.633 79.2491 236.038 95.95 236.038C112.651 236.038 126.234 249.633 126.234 266.348C126.234 283.057 112.651 296.658 95.95 296.658ZM95.95 259.653C92.2599 259.653 89.267 262.648 89.267 266.348C89.267 270.041 92.2599 273.043 95.95 273.043C99.6402 273.043 102.64 270.041 102.64 266.348C102.64 262.655 99.6336 259.653 95.95 259.653Z"
        fill="#B35050" />
</svg>